# xmcd
#
# Track frame offsets:
#	150
#	34731
#	61676
#	78422
#	98993
#	120908
#	136301
#	211944
#
# Disc length: 3641 seconds
#
# Revision: 1
# Processed by: cddbd v1.5.2PL0 Copyright (c) Steve Scherf et al.
# Submitted via: audiograbber 1.83.01
#
DISCID=5f0e3708
DTITLE=B.B. King and B.B. King Bluesband - Live At Beethovenhalle Bonn - CD2
DYEAR=1994
DGENRE=Blues
TTITLE0=Blues Improvisation Part 1
TTITLE1=Understand
TTITLE2=Blues Improvisation Part 2
TTITLE3=Nobody Loves Me But My Mother
TTITLE4=Rock Me Baby
TTITLE5=Please Accept My Love
TTITLE6=Thrill Is Gone
TTITLE7=When Love Comes To Town
EXTD=
EXTT0=
EXTT1=
EXTT2=
EXTT3=
EXTT4=
EXTT5=
EXTT6=
EXTT7=
PLAYORDER=
